<?xml version="1.0" encoding="UTF-8"?>
<svg version="1.1" xmlns="http://www.w3.org/2000/svg" width="512" height="512">
<path d="M0 0 C0.86625 0.66 1.7325 1.32 2.625 2 C3.45 2.53625 4.275 3.0725 5.125 3.625 C14.2488447 12.29265247 19.4550321 27.08162908 22.625 39 C22.625 40.32 22.625 41.64 22.625 43 C23.285 43 23.945 43 24.625 43 C24.73457031 42.00484375 24.84414063 41.0096875 24.95703125 39.984375 C25.54761782 35.8822205 26.82811539 32.10667375 28.3125 28.25 C28.70961182 27.20718872 28.70961182 27.20718872 29.11474609 26.14331055 C34.31677977 12.82788649 40.22912175 3.50270428 53.0234375 -3.26953125 C62.92192541 -7.5791806 75.51938664 -7.7662061 85.75 -4.375 C95.50557751 -0.10041871 104.18741045 7.59796972 109 17.1875 C113.33546366 28.29712563 113.81715856 40.13942937 109.32421875 51.203125 C102.01338474 66.54265268 91.14524827 71.97091553 75.625 78 C74.05294451 78.53711905 72.47802824 79.06592392 70.90063477 79.5871582 C70.097715 79.85301224 69.29479523 80.11886627 68.46754456 80.39277649 C67.85950485 80.59316025 67.25146515 80.79354401 66.625 81 C67.5593689 81.00364563 68.49373779 81.00729126 69.4564209 81.01104736 C78.28382118 81.04807006 87.11087497 81.10592185 95.93801117 81.18390274 C100.4756154 81.22332667 105.01302706 81.25553997 109.55078125 81.27099609 C113.93415936 81.28619634 118.31700784 81.32070112 122.70014954 81.36830902 C124.36814253 81.38308822 126.03621116 81.39103902 127.70426941 81.39188385 C145.38692311 81.40983855 145.38692311 81.40983855 152.8671875 87.96484375 C153.67542969 88.94130859 153.67542969 88.94130859 154.5 89.9375 C155.05429687 90.58589844 155.60859375 91.23429687 156.1796875 91.90234375 C159.92718793 97.34128356 159.9451537 102.35557646 159.9609375 108.75390625 C159.9675943 109.69177475 159.9742511 110.62964325 159.98110962 111.59593201 C159.99121198 113.57361902 159.99592739 115.55133995 159.99560547 117.52905273 C159.99999021 120.55574312 160.03636682 123.58098815 160.07421875 126.60742188 C160.08008507 128.53124502 160.0840557 130.45507508 160.0859375 132.37890625 C160.10030853 133.28314835 160.11467957 134.18739044 160.12948608 135.11903381 C160.12333282 135.96348557 160.11717957 136.80793732 160.11083984 137.67797852 C160.11368988 138.41790543 160.11653992 139.15783234 160.11947632 139.92018127 C159.625 142 159.625 142 155.625 146 C151.665 146 147.705 146 143.625 146 C143.955 159.53 144.285 173.06 144.625 187 C147.595 184.36 150.565 181.72 153.625 179 C156.42078591 177.35344959 159.02252105 175.91197534 161.9375 174.5625 C162.62650391 174.22541016 163.31550781 173.88832031 164.02539062 173.54101562 C173.67390809 168.89818996 185.540269 168.24750499 195.95703125 170.82421875 C199.03245106 172.06453049 201.8228274 173.50659403 204.64453125 175.2421875 C206.59373669 176.22661024 206.59373669 176.22661024 208.484375 175.390625 C209.42023438 174.82601562 209.42023438 174.82601562 210.375 174.25 C219.23593682 168.96322257 230.61535582 168.70582378 240.625 170 C249.87156834 172.73674275 255.84665238 178.0674303 260.93359375 186.0546875 C264.25343438 192.32677394 264.91583343 199.05071864 263.625 206 C261.80486433 209.26720005 259.36162032 211.48595139 256.625 214 C255.1941089 215.57049023 253.77816539 217.15468944 252.375 218.75 C248.51096411 223.03461123 244.61531198 227.28939781 240.71191406 231.53808594 C237.83134952 234.67595143 234.96999119 237.82986695 232.125 241 C228.34962783 245.20684327 224.53519552 249.37674853 220.7109375 253.5390625 C217.09492343 257.47829571 213.51602241 261.4494338 209.9453125 265.4296875 C207.31420204 268.34428461 204.65846561 271.23538313 202 274.125 C197.80313249 278.68855578 193.67247761 283.3032683 189.625 288 C191.4262917 291.82774487 193.75189658 295.13955866 196.1875 298.5859375 C200.21280013 305.34581652 200.48099554 312.33208206 199.625 320 C197.44429792 327.41438706 193.32770213 332.24242456 186.625 336 C182.34137866 338.12053281 178.91067945 338.16698443 174.1640625 338.02734375 C172.70835673 338.0135377 171.2526219 338.00255807 169.796875 337.99414062 C167.52140159 337.97377131 165.25158593 337.93755912 162.97753906 337.8527832 C157.99844532 337.6815931 153.46381683 337.72108468 148.625 339 C145.25831386 342.21866211 143.60595689 345.83626236 141.625 350 C139.79010709 352.4180281 137.73962037 354.57553188 135.625 356.75 C135.10083496 357.30018799 134.57666992 357.85037598 134.03662109 358.41723633 C133.01499262 359.48651125 131.98965201 360.55225652 130.95996094 361.61376953 C129.88268514 362.73241839 128.8315328 363.87619037 127.7890625 365.02734375 C113.32550108 380.62890112 89.71562066 393.01960682 68.35888672 394.17700195 C25.44659538 394.91686905 -13.29908723 385.96632026 -52.77807617 369.41699219 C-88.09200793 354.61415251 -133.45096224 337.52273798 -171.5 351.73828125 C-184.3645966 357.38402133 -192.7499757 363.16867778 -200.67578125 374.70703125 C-202.375 377 -202.375 377 -204.375 378 C-211.51579546 378.5758706 -211.51579546 378.5758706 -214.4720459 376.59448242 C-217.38702351 372.62020991 -216.93349826 368.87275313 -216.89257812 364.0625 C-216.8995874 363.05396973 -216.90659668 362.04543945 -216.91381836 361.00634766 C-216.93143218 357.67061886 -216.9197631 354.33573752 -216.90625 351 C-216.90894393 348.68359209 -216.91282551 346.36718528 -216.91784668 344.05078125 C-216.92374634 339.19520302 -216.91516338 334.33991904 -216.89648438 329.484375 C-216.87369496 323.25635354 -216.88681548 317.02902155 -216.91077423 310.80102539 C-216.92521932 306.01752515 -216.92063205 301.23418873 -216.91026306 296.45068359 C-216.90759223 294.15413329 -216.910878 291.85756817 -216.92018127 289.56103516 C-216.93032527 286.3527886 -216.91487483 283.14566294 -216.89257812 279.9375 C-216.90472351 278.50978271 -216.90472351 278.50978271 -216.91711426 277.05322266 C-216.8341431 270.61821685 -216.8341431 270.61821685 -214.46211243 267.42437744 C-210.76636565 264.90216624 -207.34928616 264.85642406 -202.95703125 264.640625 C-172.78622482 262.93424888 -145.36227847 256.31715803 -117.80664062 244.07080078 C-114.16547943 242.46737377 -110.49800676 240.93575558 -106.8125 239.4375 C-105.65621094 238.96183594 -104.49992187 238.48617187 -103.30859375 237.99609375 C-100.375 237 -100.375 237 -96.375 237 C-96.375 206.97 -96.375 176.94 -96.375 146 C-100.335 146 -104.295 146 -108.375 146 C-112.87614866 141.49885134 -112.87614866 141.49885134 -112.89257812 137.72558594 C-112.90518677 136.89081726 -112.91779541 136.05604858 -112.93078613 135.19598389 C-112.92268921 134.30115295 -112.91459229 133.40632202 -112.90625 132.484375 C-112.91199036 131.08967987 -112.91199036 131.08967987 -112.91784668 129.66680908 C-112.92056676 127.69989947 -112.91319882 125.73295375 -112.89648438 123.76611328 C-112.8751726 120.77423014 -112.89623236 117.78477486 -112.921875 114.79296875 C-112.91922985 112.87759891 -112.914101 110.96223057 -112.90625 109.046875 C-112.91434692 108.16014099 -112.92244385 107.27340698 -112.93078613 106.35980225 C-112.82653383 99.35341437 -111.06240723 94.06674304 -106.41015625 88.7578125 C-105.75917969 88.21898437 -105.10820313 87.68015625 -104.4375 87.125 C-103.78910156 86.57070312 -103.14070313 86.01640625 -102.47265625 85.4453125 C-97.76910108 82.20450168 -93.42841905 81.69860901 -87.83081055 81.68115234 C-86.7178083 81.66608391 -86.7178083 81.66608391 -85.58232117 81.65071106 C-83.14212787 81.6199453 -80.70204397 81.60286253 -78.26171875 81.5859375 C-76.56491662 81.56722052 -74.86812374 81.5476467 -73.17134094 81.5272522 C-68.71460432 81.47598098 -64.25783753 81.43632849 -59.80096436 81.39910889 C-55.24939544 81.35903779 -50.69795145 81.30795962 -46.14648438 81.2578125 C-37.22274407 81.16111256 -28.29893314 81.07668882 -19.375 81 C-20.51807617 80.60893066 -21.66115234 80.21786133 -22.83886719 79.81494141 C-24.36662618 79.28574071 -25.89429043 78.75626645 -27.421875 78.2265625 C-28.17194824 77.97076416 -28.92202148 77.71496582 -29.69482422 77.45141602 C-43.70024708 72.57303741 -54.73382862 66.06812105 -61.609375 52.578125 C-66.44596962 41.57311986 -66.39795815 30.12930636 -62.21875 18.890625 C-56.71705101 6.84801721 -48.55674676 -0.06383633 -36.375 -5 C-24.10856336 -8.53162457 -10.7899402 -6.39403864 0 0 Z M-40.375 17 C-45.51131595 22.41395465 -48.34749499 28.47738093 -48.375 36 C-47.81510119 42.95004824 -45.31414237 48.09218412 -40.375 53 C-28.71402211 62.8427381 -2.59719354 71 12.625 71 C7.32741995 38.99527285 7.32741995 38.99527285 -10.25 13.734375 C-20.87196325 7.84250476 -30.97071311 9.75304395 -40.375 17 Z M54.4609375 16.15234375 C43.23203916 27.45291591 34.625 55.16449989 34.625 71 C66.40937879 65.77432651 66.40937879 65.77432651 91.92578125 48.3359375 C95.7477247 42.16303915 95.54648173 35.00326118 94.625 28 C92.10090112 20.50288928 87.36931045 16.27914549 80.75 12.25 C71.39208547 8.50683419 62.23049978 9.65723537 54.4609375 16.15234375 Z M-94.375 101 C-97.86056271 108.8163793 -97.86056271 108.8163793 -96.375 130 C-67.335 130 -38.295 130 -8.375 130 C-8.375 119.44 -8.375 108.88 -8.375 98 C-18.70207237 97.93217315 -29.02899635 97.87715439 -39.35624123 97.84456348 C-44.15180372 97.82892003 -48.94720567 97.80770584 -53.74267578 97.77368164 C-58.37219187 97.74104115 -63.0015537 97.72313705 -67.63117599 97.71536827 C-69.39579063 97.70983319 -71.16039701 97.69902446 -72.92494583 97.68280983 C-75.40018078 97.66097305 -77.87478159 97.65803566 -80.35009766 97.65942383 C-81.4398288 97.64324509 -81.4398288 97.64324509 -82.55157471 97.6267395 C-87.21863053 97.65498644 -90.50137699 98.35519844 -94.375 101 Z M7.625 98 C7.48962837 119.44425455 7.37907356 140.88816388 7.31412697 162.33273697 C7.28317141 172.28952567 7.24095848 182.24603032 7.17236328 192.20263672 C7.11261322 200.87949584 7.07386322 209.55614929 7.06046903 218.23320842 C7.05263775 222.82898206 7.03419772 227.42416724 6.99061966 232.0197525 C6.94994769 236.3438316 6.93731973 240.66707889 6.94635391 244.9913311 C6.94470081 246.5796784 6.93273285 248.168053 6.90976715 249.75623512 C6.87996031 251.92349777 6.88706581 254.08761015 6.9034729 256.25494385 C6.89794214 257.46802341 6.89241138 258.68110298 6.88671303 259.93094254 C7.36248324 263.27519168 7.36248324 263.27519168 10.53218651 265.35975266 C12.98312279 266.65958588 15.24513435 267.79342692 17.8671875 268.66796875 C19.00220703 269.04791992 19.00220703 269.04791992 20.16015625 269.43554688 C21.31837891 269.80776367 21.31837891 269.80776367 22.5 270.1875 C23.26441406 270.44724609 24.02882813 270.70699219 24.81640625 270.97460938 C29.93125317 272.65495382 34.06355983 273.30481998 39.625 274 C39.625 215.92 39.625 157.84 39.625 98 C29.065 98 18.505 98 7.625 98 Z M55.625 98 C55.625 108.56 55.625 119.12 55.625 130 C84.665 130 113.705 130 143.625 130 C145.41385438 108.45967478 145.41385438 108.45967478 140.625 100 C136.60467462 97.50533555 132.31185362 97.72766145 127.71362305 97.77294922 C126.93260727 97.77265717 126.15159149 97.77236511 125.34690857 97.77206421 C122.77673055 97.77345264 120.20684586 97.78899079 117.63671875 97.8046875 C115.85024677 97.80841936 114.06377274 97.81126552 112.27729797 97.81326294 C107.5837129 97.82088576 102.89025232 97.84052264 98.19671631 97.8626709 C93.40394779 97.88315845 88.61115909 97.89227088 83.81835938 97.90234375 C74.42050952 97.92376982 65.02278461 97.95894095 55.625 98 Z M-80.375 146 C-80.375 175.04 -80.375 204.08 -80.375 234 C-72.455 234.33 -64.535 234.66 -56.375 235 C-38.58166208 238.16065871 -24.65456044 243.86021978 -8.375 252 C-8.375 217.02 -8.375 182.04 -8.375 146 C-32.135 146 -55.895 146 -80.375 146 Z M55.625 146 C55.625 188.24 55.625 230.48 55.625 274 C79.385 274 103.145 274 127.625 274 C127.625 231.76 127.625 189.52 127.625 146 C103.865 146 80.105 146 55.625 146 Z M163.625 193 C160.00134612 195.95243302 156.50946996 199.0093916 153.24707031 202.36352539 C151.625 204 151.625 204 149.49511719 205.85327148 C144.79474282 210.31904328 143.1014028 213.45952505 142.84375 220.00390625 C142.89640222 222.52463125 142.99106529 225.04478511 143.125 227.5625 C143.16109375 228.85736328 143.1971875 230.15222656 143.234375 231.48632812 C143.3280826 234.6606731 143.45914932 237.82874363 143.625 241 C147.73574063 237.58364123 151.58831951 234.14995354 155.125 230.125 C155.89199219 229.25617188 156.65898437 228.38734375 157.44921875 227.4921875 C158.16722656 226.66976562 158.88523437 225.84734375 159.625 225 C160.18832031 224.36320312 160.75164062 223.72640625 161.33203125 223.0703125 C165.67644476 218.14452978 169.93528614 213.14458277 174.2043457 208.15356445 C176.99151206 204.89710109 179.79242262 201.65467302 182.625 198.4375 C185.04408743 195.68880455 187.34761266 192.86782109 189.625 190 C190.285 189.34 190.945 188.68 191.625 188 C181.48727439 184.62075813 172.43941996 187.19760816 163.625 193 Z M195.890625 207.83984375 C191.04562081 213.08358276 186.52829463 218.55136889 182.046875 224.10546875 C178.32674045 228.55162956 174.3638683 232.76229516 170.41015625 237 C167.65153661 239.95876022 164.97888674 242.98395085 162.33203125 246.04296875 C160.28866569 248.3855915 158.20819141 250.69273422 156.125 253 C152.69210898 256.80322002 149.29856693 260.63712323 145.9375 264.50390625 C145.18950684 265.35652941 144.42701622 266.19798378 143.625 267 C143.58407063 269.33297433 143.58258277 271.66705225 143.625 274 C144.81996094 274.10957031 146.01492188 274.21914063 147.24609375 274.33203125 C161.7251846 275.74844751 161.7251846 275.74844751 166.9375 277.6875 C170.78601126 279.05730909 171.87850036 279.26234454 175.625 278 C177.79300024 276.13592442 177.79300024 276.13592442 179.75 273.6875 C180.52601563 272.78386719 181.30203125 271.88023437 182.1015625 270.94921875 C182.93429687 269.97597656 183.76703125 269.00273437 184.625 268 C186.44136181 265.98424909 188.28280255 263.99212882 190.125 262 C193.47919092 258.35189709 196.8149968 254.68828928 200.125 251 C203.90037217 246.79315673 207.71480448 242.62325147 211.5390625 238.4609375 C214.41922607 235.32332914 217.28031614 232.16979059 220.125 229 C223.89378832 224.80049302 227.70108283 220.63740524 231.51928711 216.48291016 C235.32632074 212.33650283 239.0940185 208.15578041 242.84765625 203.9609375 C244.07289801 202.60913231 245.33492352 201.29007648 246.625 200 C246.78280496 196.6071934 246.20148701 194.67097063 243.98046875 192.0859375 C227.22532566 176.5161487 207.94143474 195.32421707 195.890625 207.83984375 Z M-115.4375 261.875 C-143.08282862 274.13332668 -170.03301449 278.74907298 -200.375 282 C-200.375 303.78 -200.375 325.56 -200.375 348 C-196.745 345.69 -193.115 343.38 -189.375 341 C-155.54503701 323.26354038 -114.51661134 330.07984319 -79.60205078 340.95214844 C-65.89406167 345.40325218 -52.49179717 350.67192798 -39.19482422 356.21728516 C-2.90479904 371.32110248 45.79151015 387.371449 84.625 373 C100.90457704 366.13511812 118.16168648 354.29303408 127.625 339 C127.625 338.67 127.625 338.34 127.625 338 C119.52225948 337.92996168 111.41964905 337.87691928 103.316679 337.84456348 C99.55264335 337.82902095 95.78881738 337.80799648 92.02490234 337.77368164 C88.38089107 337.74067434 84.73707927 337.72306163 81.09292984 337.71536827 C79.71450798 337.70989786 78.33609489 337.69921996 76.95775986 337.68280983 C65.17808777 337.54836118 50.88249275 337.60747501 41.625 346 C40.08005581 347.93118023 38.8888629 349.86115509 37.625 352 C34.43232485 353.59633757 31.09806385 353.36932376 27.625 353 C25.625 352 25.625 352 24.625 350 C24.10140691 345.43726018 24.10455512 343.06257497 26.125 338.9375 C33.63868686 330.10891794 42.19545283 325.4090108 53.625 323 C55.31608878 322.90756456 57.01035805 322.86683586 58.70396423 322.86196899 C59.72876389 322.85651566 60.75356354 322.85106232 61.80941772 322.84544373 C63.48724838 322.84388023 63.48724838 322.84388023 65.19897461 322.84228516 C66.38146286 322.83720444 67.56395111 322.83212372 68.78227234 322.82688904 C72.0219365 322.81339109 75.26158726 322.80400147 78.50126719 322.79547167 C81.89422847 322.78473858 85.28714263 322.76616162 88.68006897 322.74765015 C100.23450949 322.68578838 111.78894436 322.63170097 123.34350586 322.59863281 C129.72749059 322.58028246 136.11133602 322.55134462 142.49521834 322.5106281 C145.87175038 322.48957103 149.24810702 322.47410265 152.62470818 322.47182083 C156.39055768 322.46692594 160.15588667 322.44380432 163.92163086 322.41650391 C165.0381604 322.41951004 166.15468994 322.42251617 167.30505371 322.4256134 C168.84648293 322.40897392 168.84648293 322.40897392 170.41905212 322.39199829 C171.75385069 322.38703307 171.75385069 322.38703307 173.11561489 322.38196754 C177.137131 321.76983008 179.79027448 319.83472552 182.625 317 C183.08551374 313.00888089 182.93192045 310.61384091 181.125 307 C171.69724464 295.68669357 160.52802661 291.53683837 146.08218384 290.17354584 C137.87050216 289.59357166 129.61256488 289.72081404 121.38519287 289.72560501 C117.67481985 289.7265823 113.96472709 289.71348834 110.25439453 289.69662476 C99.71584173 289.65070606 89.17732154 289.62575349 78.63867188 289.61914062 C72.163258 289.61410081 65.68814215 289.58973522 59.21282959 289.55381393 C56.76350704 289.54408254 54.31414319 289.54164715 51.86480713 289.54698563 C35.53228702 289.5809326 21.17057426 288.76715624 6.25 281.5 C5.55140869 281.16742188 4.85281738 280.83484375 4.13305664 280.4921875 C-2.0553619 277.41492806 -7.50677334 273.51117879 -13.06982422 269.43920898 C-44.94050563 246.3522194 -80.38676806 246.27907226 -115.4375 261.875 Z " fill="#091B27" transform="translate(232.375,86)"/>
<path d="M0 0 C2.5 1.5 2.5 1.5 4 4 C4.78300075 8.27091317 4.97936742 10.48991393 2.6015625 14.15625 C0.82933804 16.23029434 -1.02244732 18.12215585 -3 20 C-4.2065625 21.2375 -4.2065625 21.2375 -5.4375 22.5 C-9.27374566 24.74560721 -11.57999234 24.56127081 -16 24 C-18.5 22.5 -18.5 22.5 -20 20 C-20.78300075 15.72908683 -20.97936742 13.51008607 -18.6015625 9.84375 C-16.82933804 7.76970566 -14.97755268 5.87784415 -13 4 C-12.195625 3.175 -11.39125 2.35 -10.5625 1.5 C-6.72625434 -0.74560721 -4.42000766 -0.56127081 0 0 Z " fill="#091B28" transform="translate(396,80)"/>
<path d="M0 0 C4.33159896 1.17706493 7.14266241 4.41233641 10.15625 7.5859375 C11.39375 8.7925 11.39375 8.7925 12.65625 10.0234375 C14.90185721 13.85968316 14.71752081 16.16592984 14.15625 20.5859375 C12.65625 23.0859375 12.65625 23.0859375 10.15625 24.5859375 C5.88533683 25.36893825 3.66633607 25.56530492 0 23.1875 C-2.07404434 21.41527554 -3.96590585 19.56349018 -5.84375 17.5859375 C-6.66875 16.7815625 -7.49375 15.9771875 -8.34375 15.1484375 C-10.58935721 11.31219184 -10.40502081 9.00594516 -9.84375 4.5859375 C-7.45735798 0.60861746 -4.61578931 -0.22390023 0 0 Z " fill="#091B28" transform="translate(121.84375,79.4140625)"/>
<path d="M0 0 C0.7115625 -0.01546875 1.423125 -0.0309375 2.15625 -0.046875 C5.60314984 -0.02115187 7.64752229 0.24568064 10.46875 2.28125 C12.08267327 4.61979188 12.54379543 5.69709278 12.5 8.5 C12.5103125 9.16 12.520625 9.82 12.53125 10.5 C11.72167176 13.54782397 10.55457707 14.65682414 8 16.5 C5.16934716 16.90100915 2.81653341 17.06122899 0 17 C-0.7115625 17.01546875 -1.423125 17.0309375 -2.15625 17.046875 C-5.60314984 17.02115187 -7.64752229 16.75431936 -10.46875 14.71875 C-12.08267327 12.38020812 -12.54379543 11.30290722 -12.5 8.5 C-12.51546875 7.51 -12.51546875 7.51 -12.53125 6.5 C-10.82633794 0.08150756 -5.75061521 -0.12501337 0 0 Z " fill="#091C27" transform="translate(436,199.5)"/>
<path d="M0 0 C0.7115625 -0.01546875 1.423125 -0.0309375 2.15625 -0.046875 C5.60314984 -0.02115187 7.64752229 0.24568064 10.46875 2.28125 C12.08267327 4.61979188 12.54379543 5.69709278 12.5 8.5 C12.5103125 9.16 12.520625 9.82 12.53125 10.5 C11.72167176 13.54782397 10.55457707 14.65682414 8 16.5 C5.16934716 16.90100915 2.81653341 17.06122899 0 17 C-0.7115625 17.01546875 -1.423125 17.0309375 -2.15625 17.046875 C-5.60314984 17.02115187 -7.64752229 16.75431936 -10.46875 14.71875 C-12.08267327 12.38020812 -12.54379543 11.30290722 -12.5 8.5 C-12.51546875 7.51 -12.51546875 7.51 -12.53125 6.5 C-10.82633794 0.08150756 -5.75061521 -0.12501337 0 0 Z " fill="#091C27" transform="translate(76,199.5)"/>
<path d="M0 0 C0.66 -0.0103125 1.32 -0.020625 2 -0.03125 C5.04782397 0.77832824 6.15682414 1.94542293 8 4.5 C8.40100915 7.33065284 8.56122899 9.68346659 8.5 12.5 C8.51546875 13.2115625 8.5309375 13.923125 8.546875 14.65625 C8.52115187 18.10314984 8.25431936 20.14752229 6.21875 22.96875 C3.88020812 24.58267327 2.80290722 25.04379543 0 25 C-0.66 25.0103125 -1.32 25.020625 -2 25.03125 C-5.04782397 24.22167176 -6.15682414 23.05457707 -8 20.5 C-8.40100915 17.66934716 -8.56122899 15.31653341 -8.5 12.5 C-8.51546875 11.7884375 -8.5309375 11.076875 -8.546875 10.34375 C-8.52115187 6.89685016 -8.25431936 4.85247771 -6.21875 2.03125 C-3.88020812 0.41732673 -2.80290722 -0.04379543 0 0 Z " fill="#091C27" transform="translate(256,31.5)"/>
</svg>
